<svg xmlns="http://www.w3.org/2000/svg"  viewBox="0 0 27.467 27.467">
  <g id="Iconly_Light-Outline_Chart" data-name="Iconly/Light-Outline/Chart" transform="translate(-1 -1)">
    <g id="Chart" transform="translate(1 1)">
      <path id="Combined-Shape" d="M19.72,0c4.634,0,7.747,3.253,7.747,8.093V19.374c0,4.841-3.113,8.093-7.747,8.093H7.747C3.113,27.467,0,24.214,0,19.374V8.093C0,3.253,3.113,0,7.747,0Zm0,1.916H7.747c-3.541,0-5.831,2.423-5.831,6.177V19.374c0,3.753,2.289,6.177,5.831,6.177H19.72c3.543,0,5.831-2.423,5.831-6.177V8.093C25.551,4.34,23.262,1.916,19.72,1.916ZM7.82,10.479a.958.958,0,0,1,.958.958V20.2a.958.958,0,1,1-1.916,0V11.437A.958.958,0,0,1,7.82,10.479Zm5.962-4.2a.958.958,0,0,1,.958.958V20.2a.958.958,0,1,1-1.916,0V7.242A.958.958,0,0,1,13.782,6.284Zm5.864,8.826a.958.958,0,0,1,.958.958V20.2a.958.958,0,0,1-1.916,0V16.068A.958.958,0,0,1,19.646,15.11Z"/>
    </g>
  </g>
</svg>
