<svg xmlns="http://www.w3.org/2000/svg" viewBox="0 0 27.109 31.51">
  <g id="Iconly_Light-Outline_Notification" data-name="Iconly/Light-Outline/Notification" transform="translate(0 -28)">
    <g id="Notification" transform="translate(0 28)">
      <path id="Combined-Shape" d="M10.734,28a3.7,3.7,0,0,0,2.745,1.31h0A3.71,3.71,0,0,0,16.236,28a1.1,1.1,0,0,1,1.634,1.471,5.886,5.886,0,0,1-4.389,2.039h0A5.868,5.868,0,0,1,9.1,29.47,1.1,1.1,0,0,1,10.734,28ZM13.553,0c6.515,0,10.891,5.074,10.891,9.812a7.5,7.5,0,0,0,1.278,4.567,7.957,7.957,0,0,1,1.388,4.631c-.511,5.931-6.7,6.415-13.557,6.415S.506,24.941,0,19.1a8.026,8.026,0,0,1,1.384-4.725l.23-.387a7.351,7.351,0,0,0,1.048-4.18C2.662,5.074,7.038,0,13.553,0Zm0,2.2C8.43,2.2,4.86,6.211,4.86,9.812a9.555,9.555,0,0,1-1.593,5.7,5.8,5.8,0,0,0-1.073,3.5c.245,2.764,2.069,4.217,11.358,4.217,9.238,0,11.12-1.517,11.363-4.312a5.736,5.736,0,0,0-1.077-3.4,9.555,9.555,0,0,1-1.593-5.7C22.245,6.211,18.675,2.2,13.553,2.2Z" transform="translate(0)"/>
    </g>
  </g>
</svg>
