<svg xmlns="http://www.w3.org/2000/svg"  viewBox="0 0 27.109 29.89">
  <g id="Iconly_Light-Outline_Calendar" data-name="Iconly/Light-Outline/Calendar" transform="translate(-1 -42)">
    <g id="Calendar" transform="translate(1 42)">
      <path id="Combined-Shape" d="M19.176,0a1.043,1.043,0,0,1,1.043,1.043V2.221a7.482,7.482,0,0,1,4.909,2.03A7.468,7.468,0,0,1,27.109,9.7V22.38c0,4.632-2.942,7.51-7.675,7.51H7.675C2.942,29.89,0,26.972,0,22.274V9.694C0,5.325,2.623,2.52,6.9,2.222V1.043a1.043,1.043,0,0,1,2.085,0V2.2h9.145V1.043A1.043,1.043,0,0,1,19.176,0Zm5.848,12.378H2.085v9.9c0,3.567,1.985,5.53,5.59,5.53H19.434c3.6,0,5.59-1.927,5.59-5.425Zm-5.281,8.748a1.042,1.042,0,1,1-.013,0Zm-6.169,0a1.042,1.042,0,1,1-.013,0Zm-6.182,0a1.043,1.043,0,1,1-.013,0Zm12.351-5.4a1.042,1.042,0,1,1-.013,0Zm-6.169,0a1.042,1.042,0,1,1-.013,0Zm-6.182,0a1.043,1.043,0,1,1-.013,0ZM18.133,4.28H8.988V5.618a1.043,1.043,0,0,1-2.085,0V4.312c-3.114.262-4.817,2.149-4.817,5.382v.6H25.024v-.6a5.373,5.373,0,0,0-1.372-3.969A5.372,5.372,0,0,0,20.22,4.313V5.618a1.043,1.043,0,0,1-2.085,0Z" transform="translate(0 0)"/>
    </g>
  </g>
</svg>
