<svg xmlns="http://www.w3.org/2000/svg"  viewBox="0 0 30.999 30.681">
  <g id="Iconly_Light-Outline_Add-User" data-name="Iconly/Light-Outline/Add-User" transform="translate(-2 -2)">
    <g id="Add-User" transform="translate(2 2)">
      <path id="Combined-Shape" d="M12.209,19.306H12.8c3.475.019,11.615.334,11.615,5.7,0,4.979-6.686,5.644-11.886,5.669h-.917C8.14,30.662,0,30.346,0,24.978,0,19.894,6.967,19.306,12.209,19.306Zm0,2.325c-6.558,0-9.884,1.127-9.884,3.346,0,2.241,3.326,3.379,9.884,3.379s9.884-1.127,9.884-3.345C22.093,22.767,18.767,21.631,12.209,21.631ZM26.666,9.174a1.163,1.163,0,0,1,1.162,1.162V12.28h2.009a1.162,1.162,0,0,1,0,2.325H27.828v1.948a1.162,1.162,0,1,1-2.325,0V14.605H23.5a1.162,1.162,0,0,1,0-2.325H25.5V10.336A1.163,1.163,0,0,1,26.666,9.174ZM12.209,0a8.243,8.243,0,0,1,0,16.485h-.048A8.243,8.243,0,0,1,12.209,0Zm0,2.325A5.925,5.925,0,0,0,6.293,8.243a5.89,5.89,0,0,0,5.873,5.918l.043,1.149V14.16a5.918,5.918,0,1,0,0-11.835Z" transform="translate(0 0)"/>
    </g>
  </g>
</svg>
