<svg xmlns="http://www.w3.org/2000/svg"  viewBox="0 0 27.109 27.109">
  <g id="Iconly_Light-Outline_Category" data-name="Iconly/Light-Outline/Category" transform="translate(0)">
    <g id="Category" transform="translate(0 0)">
      <path id="Combined-Shape" d="M5.908,15.292c5.657,0,5.908,1.918,5.908,5.908,0,2,0,3.421-.84,4.463-.966,1.2-2.725,1.446-5.069,1.446s-4.1-.246-5.069-1.446C0,24.622,0,23.2,0,21.236L1.043,21.2H0C0,17.211.252,15.292,5.908,15.292Zm15.292,0c5.657,0,5.908,1.918,5.908,5.908,0,2,0,3.421-.84,4.463-.966,1.2-2.725,1.446-5.069,1.446s-4.1-.246-5.069-1.446c-.84-1.041-.84-2.462-.84-4.428l1.043-.035H15.292C15.292,17.211,15.544,15.292,21.2,15.292ZM6.2,17.378H5.908c-3.627,0-3.813.26-3.823,3.3v1.186a4.715,4.715,0,0,0,.376,2.488c.368.456,1.463.667,3.446.667s3.078-.213,3.446-.669.377-1.581.377-3.121C9.732,17.758,9.732,17.395,6.2,17.378Zm15.292,0H21.2c-3.627,0-3.813.26-3.823,3.3v1.186a4.715,4.715,0,0,0,.376,2.488c.368.456,1.463.667,3.446.667s3.078-.213,3.446-.669.377-1.581.377-3.121C25.024,17.758,25.024,17.395,21.488,17.378ZM5.908,0c5.657,0,5.908,1.918,5.908,5.908,0,2,0,3.421-.84,4.463-.966,1.2-2.725,1.446-5.069,1.446s-4.1-.246-5.069-1.446C0,9.33,0,7.909,0,5.943l1.043-.035H0C0,1.918.252,0,5.908,0ZM21.2,0c5.657,0,5.908,1.918,5.908,5.908,0,2,0,3.421-.84,4.463-.966,1.2-2.725,1.446-5.069,1.446s-4.1-.246-5.069-1.446c-.84-1.041-.84-2.462-.84-4.428l1.043-.035H15.292C15.292,1.918,15.544,0,21.2,0ZM6.2,2.086H5.908c-3.627,0-3.813.26-3.823,3.3V6.576a4.715,4.715,0,0,0,.376,2.488c.368.456,1.463.667,3.446.667s3.078-.213,3.446-.669.377-1.581.377-3.121C9.732,2.466,9.732,2.1,6.2,2.086Zm15.292,0H21.2c-3.627,0-3.813.26-3.823,3.3V6.576a4.715,4.715,0,0,0,.376,2.488c.368.456,1.463.667,3.446.667s3.078-.213,3.446-.669.377-1.581.377-3.121C25.024,2.466,25.024,2.1,21.488,2.086Z"/>
    </g>
  </g>
</svg>
