<svg xmlns="http://www.w3.org/2000/svg" viewBox="0 0 25.752 32.305">
  <g id="Iconly_Light-Outline_Profile" data-name="Iconly/Light-Outline/Profile" transform="translate(-4 -2)">
    <g id="Profile" transform="translate(4 2)">
      <path id="Combined-Shape" d="M25.752,26.326c0,5.359-7.348,5.978-12.874,5.978h-.4C8.961,32.3,0,32.073,0,26.294c0-5.249,7.053-5.951,12.537-5.977h.736C16.793,20.325,25.752,20.547,25.752,26.326ZM12.878,22.755c-6.927,0-10.439,1.19-10.439,3.539,0,2.37,3.512,3.572,10.439,3.572s10.436-1.19,10.436-3.539C23.313,23.956,19.8,22.755,12.878,22.755ZM12.878,0a8.632,8.632,0,0,1,0,17.264h-.052A8.632,8.632,0,0,1,12.878,0Zm0,2.322a6.311,6.311,0,0,0-.047,12.622l.047,1.161V14.944a6.311,6.311,0,0,0,0-12.622Z" transform="translate(0 0)"/>
    </g>
  </g>
</svg>
