<svg xmlns="http://www.w3.org/2000/svg" viewBox="0 0 37.752 37.752">
  <g id="Iconly_Light-Outline_Chart" data-name="Iconly/Light-Outline/Chart" transform="translate(1)">
    <g id="Chart" transform="translate(-1)">
      <path id="Combined-Shape" d="M27.1,0c6.369,0,10.648,4.47,10.648,11.124v15.5c0,6.653-4.279,11.124-10.648,11.124H10.648C4.279,37.752,0,33.281,0,26.628v-15.5C0,4.47,4.279,0,10.648,0Zm0,2.634H10.648c-4.867,0-8.014,3.331-8.014,8.49v15.5c0,5.159,3.147,8.49,8.014,8.49H27.1c4.869,0,8.014-3.331,8.014-8.49v-15.5C35.118,5.965,31.973,2.634,27.1,2.634ZM10.748,14.4a1.317,1.317,0,0,1,1.317,1.317V27.765a1.317,1.317,0,0,1-2.634,0V15.72A1.317,1.317,0,0,1,10.748,14.4Zm8.195-5.766A1.317,1.317,0,0,1,20.26,9.953v17.81a1.317,1.317,0,0,1-2.634,0V9.953A1.317,1.317,0,0,1,18.943,8.636ZM27,20.768a1.317,1.317,0,0,1,1.317,1.317v5.679a1.317,1.317,0,0,1-2.634,0V22.085A1.317,1.317,0,0,1,27,20.768Z"/>
    </g>
  </g>
</svg>
