<svg xmlns="http://www.w3.org/2000/svg"  viewBox="0 0 43.192 33.308">
  <g id="Iconly_Light-Outline_3-User" data-name="Iconly/Light-Outline/3-User" transform="translate(-1 -4)">
    <g id="_3-User" data-name="3-User" transform="translate(1 4)">
      <path id="Combined-Shape" d="M21.6,20.659h.224l.5,0c3.83.025,12.582.412,12.582,6.344,0,5.893-8.447,6.278-12.523,6.3h-1.51c-3.83-.025-12.584-.412-12.584-6.336,0-5.9,8.754-6.286,12.584-6.311l.5,0Zm0,2.976c-4.714,0-10.334.579-10.334,3.337,0,2.695,5.285,3.325,9.9,3.361l.431,0c4.714,0,10.332-.577,10.332-3.329C31.929,24.22,26.311,23.635,21.6,23.635Zm15.778-3.781c4.807.72,5.817,2.978,5.817,4.745,0,1.079-.425,3.049-3.261,4.13a1.5,1.5,0,0,1-.53.1,1.488,1.488,0,0,1-.53-2.878c1.345-.512,1.345-1.077,1.345-1.349,0-.869-1.1-1.476-3.283-1.8a1.489,1.489,0,1,1,.442-2.944ZM7.511,21.1A1.491,1.491,0,0,1,6.259,22.8c-2.178.325-3.283.932-3.283,1.8,0,.272,0,.835,1.347,1.349a1.488,1.488,0,0,1-.53,2.878,1.5,1.5,0,0,1-.53-.1C.425,27.647,0,25.677,0,24.6c0-1.766,1.01-4.025,5.819-4.745A1.5,1.5,0,0,1,7.511,21.1ZM21.6,0a9.064,9.064,0,1,1,0,18.128h-.054a9.036,9.036,0,0,1-9.009-9.07A9.072,9.072,0,0,1,21.6,0Zm0,2.976a6.094,6.094,0,0,0-6.086,6.088,6.059,6.059,0,0,0,6.037,6.088l.05,1.488V15.152a6.088,6.088,0,1,0,0-12.177ZM33.875,1.943a7.184,7.184,0,0,1-.169,14.2,1.461,1.461,0,0,1-.206.014,1.488,1.488,0,0,1-.2-2.962,4.208,4.208,0,0,0,.1-8.32,1.488,1.488,0,1,1,.484-2.936ZM11.029,3.169A1.489,1.489,0,0,1,9.8,4.879,4.208,4.208,0,0,0,9.9,13.2a1.488,1.488,0,0,1-.2,2.962,1.461,1.461,0,0,1-.206-.014,7.184,7.184,0,0,1-.167-14.2A1.48,1.48,0,0,1,11.029,3.169Z" transform="translate(0 0)"/>
    </g>
  </g>
</svg>
