<svg xmlns="http://www.w3.org/2000/svg" viewBox="0 0 36.229 39.945">
  <g id="Iconly_Light-Outline_Calendar" data-name="Iconly/Light-Outline/Calendar" transform="translate(-1 -42)">
    <g id="Calendar" transform="translate(1 42)">
      <path id="Combined-Shape" d="M25.627,0A1.394,1.394,0,0,1,27.02,1.393V2.969a10,10,0,0,1,6.56,2.713,9.981,9.981,0,0,1,2.648,7.277v16.95c0,6.19-3.931,10.036-10.257,10.036H10.257C3.931,39.945,0,36.045,0,29.767V12.955C0,7.116,3.506,3.368,9.224,2.969V1.393a1.393,1.393,0,0,1,2.787,0v1.54H24.233V1.393A1.394,1.394,0,0,1,25.627,0Zm7.815,16.543H2.787V29.767c0,4.767,2.653,7.391,7.471,7.391H25.972c4.818,0,7.471-2.575,7.471-7.249Zm-7.058,11.69a1.392,1.392,0,1,1-.017,0Zm-8.244,0a1.392,1.392,0,1,1-.017,0Zm-8.262,0a1.394,1.394,0,1,1-.017,0Zm16.506-7.221a1.392,1.392,0,1,1-.017,0Zm-8.244,0a1.392,1.392,0,1,1-.017,0Zm-8.262,0a1.394,1.394,0,1,1-.017,0ZM24.233,5.72H12.011V7.508a1.393,1.393,0,0,1-2.787,0V5.763c-4.162.35-6.437,2.873-6.437,7.193v.8H33.442v-.8a7.18,7.18,0,0,0-1.834-5.3,7.179,7.179,0,0,0-4.586-1.887l0,1.744a1.393,1.393,0,0,1-2.787,0Z" transform="translate(0 0)"/>
    </g>
  </g>
</svg>
