<svg xmlns="http://www.w3.org/2000/svg" viewBox="0 0 34.922 33.308">
  <g id="Iconly_Light-Outline_2-User" data-name="Iconly/Light-Outline/2-User" transform="translate(-2 -2)">
    <g id="_2-User" data-name="2-User" transform="translate(2 2)">
      <path id="Combined-Shape" d="M13.27,20.9c5.7,0,13.27.641,13.27,6.191,0,5.846-8.825,6.2-12.61,6.218H12.555C8.519,33.287,0,32.939,0,27.126c0-5.852,8.825-6.2,12.61-6.225h.66Zm0,2.622c-4.857,0-10.648.624-10.648,3.6,0,2.363,3.583,3.562,10.648,3.562s10.648-1.211,10.648-3.6C23.918,24.722,20.335,23.521,13.27,23.521ZM29.2,20.083c4.73.708,5.721,2.9,5.721,4.609,0,1.274-.551,3-3.178,3.994a1.311,1.311,0,1,1-.93-2.451c1.486-.563,1.486-1.25,1.486-1.543,0-.991-1.173-1.669-3.485-2.014a1.314,1.314,0,0,1-1.1-1.491A1.331,1.331,0,0,1,29.2,20.083ZM13.27,0a8.987,8.987,0,0,1,8.976,8.975,8.952,8.952,0,0,1-8.916,8.975H13.27A8.975,8.975,0,1,1,13.27,0ZM25.658,1.964A7.074,7.074,0,0,1,25.5,15.949a1.3,1.3,0,0,1-.184.012,1.311,1.311,0,0,1-.182-2.61,4.451,4.451,0,0,0,.1-8.8,1.311,1.311,0,0,1,.423-2.589ZM13.27,2.622a6.354,6.354,0,1,0,0,12.707h.054a6.329,6.329,0,0,0,6.3-6.348A6.363,6.363,0,0,0,13.27,2.622Z" transform="translate(0 0)"/>
    </g>
  </g>
</svg>
