<svg xmlns="http://www.w3.org/2000/svg" viewBox="0 0 50.342 63.151">
  <g id="Iconly_Light-Outline_Profile" data-name="Iconly/Light-Outline/Profile" transform="translate(-4 -2)">
    <g id="Profile" transform="translate(4 2)">
      <path id="Combined-Shape" d="M50.342,51.465c0,10.475-14.365,11.686-25.168,11.686H24.4C17.518,63.133,0,62.7,0,51.4,0,41.14,13.788,39.768,24.508,39.717h1.439C32.829,39.732,50.342,40.167,50.342,51.465ZM25.174,44.482c-13.542,0-20.407,2.326-20.407,6.919,0,4.634,6.865,6.982,20.407,6.982s20.4-2.326,20.4-6.919C45.574,46.831,38.713,44.482,25.174,44.482ZM25.174,0a16.874,16.874,0,0,1,0,33.749h-.1A16.874,16.874,0,0,1,25.174,0Zm0,4.538a12.338,12.338,0,0,0-.092,24.675l.092,2.269V29.213a12.338,12.338,0,0,0,0-24.675Z" transform="translate(0 0)"/>
    </g>
  </g>
</svg>
